<svg width="230" height="230" viewBox="0 0 230 230" fill="none" xmlns="http://www.w3.org/2000/svg">
<rect x="6" y="8" width="218" height="213.302" rx="95" fill="#432F28"/>
<path d="M113.011 21.9632L116.026 18.9479C116.94 19.4789 117.589 20.0128 118.139 20.6335C119.024 21.6334 119.82 23.0455 120.855 25.5285C121.459 26.9783 121.088 28.2462 119.788 29.5894C118.552 30.865 116.738 31.8583 115.235 32.3721C114.397 32.2509 114.007 32.1651 113.736 32.0495C113.626 32.0024 113.57 31.9623 113.524 31.9195C113.47 31.8703 113.365 31.7578 113.22 31.5037C112.698 30.5896 112.241 29.904 111.887 29.3775C111.506 28.8093 111.346 28.5657 111.238 28.3513C111.235 28.3438 111.23 28.336 111.226 28.3277C111.164 28.2126 111.044 27.9906 111.194 26.8604L111.997 23.6554L113.011 21.9632Z" stroke="#E6B986" stroke-width="5.63793"/>
<path d="M112.944 200.625L115.483 198.414C118.399 200.185 119.698 201.964 119.698 204.188C119.698 206.748 118.262 208.594 115.476 209.956C115.182 209.934 114.925 209.927 114.704 209.925C114.657 209.856 114.604 209.776 114.543 209.683C113.298 207.773 112.556 207.06 111.93 206.475C111.699 206.259 111.623 206.183 111.526 206.057C111.461 205.972 111.369 205.841 111.242 205.627L111.242 203.369L112.944 200.625ZM114.114 209.924C114.114 209.924 114.115 209.924 114.117 209.924L114.114 209.924Z" stroke="#E6B986" stroke-width="5.63793"/>
<circle cx="53.9222" cy="143.31" r="3.75862" fill="#FFEEBB"/>
<circle cx="64.2586" cy="143.31" r="3.75862" fill="#FFEEBB"/>
<circle cx="64.2586" cy="45.5858" r="3.75862" fill="#FFEEBB"/>
<circle cx="53.9222" cy="45.5858" r="3.75862" fill="#FFEEBB"/>
<circle cx="53.9222" cy="57.8016" r="3.75862" fill="#FFEEBB"/>
<circle cx="53.9222" cy="70.9569" r="3.75862" fill="#FFEEBB"/>
<circle cx="53.9222" cy="157.405" r="3.75862" fill="#FFEEBB"/>
<circle cx="64.2586" cy="157.405" r="3.75862" fill="#FFEEBB"/>
<circle cx="64.2586" cy="57.8016" r="3.75862" fill="#FFEEBB"/>
<circle cx="53.9222" cy="170.56" r="3.75862" fill="#FFEEBB"/>
<circle cx="64.2586" cy="170.56" r="3.75862" fill="#D9D9D9"/>
<circle cx="64.2586" cy="170.56" r="3.75862" fill="#FFEEBB"/>
<circle cx="64.2586" cy="70.9569" r="3.75862" fill="#FFEEBB"/>
<circle cx="64.2586" cy="183.716" r="3.75862" fill="#FFEEBB"/>
<circle cx="64.2586" cy="84.1121" r="3.75862" fill="#FFEEBB"/>
<path d="M60.5003 114.651L47.8149 101.026L34.1899 114.651L47.8149 128.746L60.5003 114.651Z" stroke="#E7B987" stroke-width="3.75862"/>
<circle cx="47.3453" cy="114.181" r="2.34914" fill="#FFEEBB" stroke="#FFEEBB" stroke-width="0.939655"/>
<path d="M89.6292 114.651L76.9438 101.026L63.3188 114.651L76.9438 128.746L89.6292 114.651Z" stroke="#E7B987" stroke-width="3.75862"/>
<circle cx="76.4742" cy="114.181" r="2.34914" fill="#FFEEBB" stroke="#FFEEBB" stroke-width="0.939655"/>
<path d="M32.3103 114.651L19.625 101.026L6 114.651L19.625 128.746L32.3103 114.651Z" stroke="#E7B987" stroke-width="3.75862"/>
<circle cx="19.1554" cy="114.181" r="2.34914" fill="#FFEEBB" stroke="#FFEEBB" stroke-width="0.939655"/>
<path d="M196.75 114.651L184.065 101.026L170.44 114.651L184.065 128.746L196.75 114.651Z" stroke="#E7B987" stroke-width="3.75862"/>
<circle cx="183.595" cy="114.181" r="2.34914" fill="#FFEEBB" stroke="#FFEEBB" stroke-width="0.939655"/>
<path d="M224 114.651L211.315 101.026L197.69 114.651L211.315 128.746L224 114.651Z" stroke="#E7B987" stroke-width="3.75862"/>
<circle cx="210.845" cy="114.181" r="2.34914" fill="#FFEEBB" stroke="#FFEEBB" stroke-width="0.939655"/>
<path d="M168.56 114.651L155.875 101.026L142.25 114.651L155.875 128.746L168.56 114.651Z" stroke="#E7B987" stroke-width="3.75862"/>
<circle cx="155.405" cy="114.181" r="2.34914" fill="#FFEEBB" stroke="#FFEEBB" stroke-width="0.939655"/>
<path d="M106.32 164.916C99.7971 158.88 103.998 145.878 107.713 143.092H106.32L103.534 144.485C100.747 146.342 99.9117 148.2 99.3545 150.986C98.6115 154.701 97.497 161.201 101.212 166.309C104.634 171.014 106.875 172.804 112.82 174.203C120.714 176.06 129.072 170.952 132.787 167.702C136.502 164.452 138.654 152.379 135.109 145.878C132.919 141.863 114.678 118.018 97.9616 131.019C82.6156 142.955 84.752 155.629 85.4244 162.13C86.8174 175.596 97.497 181.632 107.713 185.811C116.999 189.61 130.001 186.74 139.752 178.846C147.553 172.531 152.289 158.88 149.967 148.2C147.343 136.127 139.752 125.912 128.143 118.947C119.874 113.985 103.534 105.945 97.497 98.9799C94.7111 93.4078 90.1606 82.3566 92.3894 73.4413C95.1754 62.2972 107.601 53.2257 116.071 53.4748C131.858 53.9391 136.037 61.3685 140.681 68.3336C142.538 78.0847 142.474 89.485 130.465 95.7295C118.857 101.766 107.713 92.9435 104.927 87.8358C101.987 82.4467 104.462 71.1196 108.177 68.3336C111.892 65.5475 120.714 62.2972 125.822 68.3336C130.929 74.37 131.858 77.6203 129.072 89.2288C131.084 87.5262 135.573 86.4427 135.573 76.2272C135.573 68.7978 127.989 62.9162 123.5 60.9041C121.643 60.0715 105.931 58.9266 100.747 69.7265C95.1754 81.335 100.747 92.0147 104.927 96.6581C110.499 103.623 137.059 110.867 144.86 93.4078C154.611 71.5839 143.002 58.118 137.43 53.4748C127.141 44.9007 107.712 46.0454 97.497 53.4748C87.2814 60.9042 84.0313 72.9769 86.353 89.2288C88.2767 102.695 104.462 114.767 114.213 118.947C127.369 125.138 145.788 135.663 142.538 161.201C140.706 175.596 119.562 182.891 108.641 178.846C96.1041 174.203 90.0677 163.523 91.925 152.379C93.0084 145.878 102.605 130.439 114.213 133.341C120.25 134.85 132.323 144.949 131.394 158.88C131.101 163.275 119.365 176.989 106.32 164.916Z" fill="#ECC38D"/>
<path d="M106.32 164.916C99.7971 158.88 103.998 145.878 107.713 143.092H106.32L103.534 144.485C100.747 146.342 99.9117 148.2 99.3545 150.986C98.6115 154.701 97.497 161.201 101.212 166.309C104.634 171.014 106.875 172.804 112.82 174.203C120.714 176.06 129.072 170.952 132.787 167.702C136.502 164.452 138.654 152.379 135.109 145.878C132.919 141.863 114.678 118.018 97.9616 131.019C82.6156 142.955 84.752 155.629 85.4244 162.13C86.8174 175.596 97.497 181.632 107.713 185.811C116.999 189.61 130.001 186.74 139.752 178.846C147.553 172.531 152.289 158.88 149.967 148.2C147.343 136.127 139.752 125.912 128.143 118.947C119.874 113.985 103.534 105.945 97.497 98.9799C94.7111 93.4078 90.1606 82.3566 92.3894 73.4413C95.1754 62.2972 107.601 53.2257 116.071 53.4748C131.858 53.9391 136.037 61.3685 140.681 68.3336C142.538 78.0847 142.474 89.485 130.465 95.7295C118.857 101.766 107.713 92.9435 104.927 87.8358C101.987 82.4467 104.462 71.1196 108.177 68.3336C111.892 65.5475 120.714 62.2972 125.822 68.3336C130.929 74.37 131.858 77.6203 129.072 89.2288C131.084 87.5262 135.573 86.4427 135.573 76.2272C135.573 68.7978 127.989 62.9162 123.5 60.9041C121.643 60.0715 105.931 58.9266 100.747 69.7265C95.1754 81.335 100.747 92.0147 104.927 96.6581C110.499 103.623 137.059 110.867 144.86 93.4078C154.611 71.5839 143.002 58.118 137.43 53.4748C127.141 44.9007 107.712 46.0454 97.497 53.4748C87.2814 60.9042 84.0313 72.9769 86.353 89.2288C88.2767 102.695 104.462 114.767 114.213 118.947C127.369 125.138 145.788 135.663 142.538 161.201C140.706 175.596 119.562 182.891 108.641 178.846C96.1041 174.203 90.0677 163.523 91.925 152.379C93.0084 145.878 102.605 130.439 114.213 133.341C120.25 134.85 132.323 144.949 131.394 158.88C131.101 163.275 119.365 176.989 106.32 164.916Z" fill="#D0906C" fill-opacity="0.2"/>
<circle cx="116.535" cy="154.235" r="7.89375" fill="#FFEEBB"/>
<path d="M125.822 79.4758C125.822 84.0918 122.544 87.3695 117.928 87.3695C113.312 87.3695 110.034 84.0918 110.034 79.4758C110.034 74.8597 113.312 71.582 117.928 71.582C122.544 71.582 125.822 74.8597 125.822 79.4758Z" fill="#FFEEBB"/>
<line x1="21.9742" y1="62.5" x2="21.9742" y2="89.75" stroke="#C6956A" stroke-width="5.63793"/>
<line x1="52.9825" y1="27.7324" x2="52.9825" y2="38.0686" stroke="#C6956A" stroke-width="5.63793"/>
<line x1="63.319" y1="22.0947" x2="63.319" y2="38.0689" stroke="#C6956A" stroke-width="5.63793"/>
<line x1="52.9825" y1="80.3535" x2="52.9825" y2="89.7501" stroke="#C6956A" stroke-width="5.63793"/>
<line x1="21.9742" y1="139.552" x2="21.9742" y2="166.802" stroke="#C6956A" stroke-width="5.63793"/>
<line x1="52.9825" y1="179.957" x2="52.9825" y2="201.569" stroke="#C6956A" stroke-width="5.63793"/>
<line x1="63.319" y1="192.173" x2="63.319" y2="209.087" stroke="#C6956A" stroke-width="5.63793"/>
<line x1="32.3102" y1="47.4658" x2="32.3102" y2="89.7503" stroke="#C6956A" stroke-width="5.63793"/>
<line x1="31.3707" y1="139.552" x2="31.3707" y2="181.836" stroke="#C6956A" stroke-width="5.63793"/>
<line x1="42.6466" y1="35.25" x2="42.6466" y2="89.75" stroke="#C6956A" stroke-width="5.63793"/>
<line x1="42.6466" y1="139.552" x2="42.6466" y2="194.991" stroke="#C6956A" stroke-width="5.63793"/>
<line x1="74.5948" y1="15.5176" x2="74.5948" y2="89.7503" stroke="#C6956A" stroke-width="5.63793"/>
<line x1="74.5948" y1="139.552" x2="74.5948" y2="212.845" stroke="#C6956A" stroke-width="5.63793"/>
<line x1="90.569" y1="184.655" x2="90.569" y2="217.543" stroke="#C6956A" stroke-width="5.63793"/>
<line x1="142.25" y1="184.655" x2="142.25" y2="217.543" stroke="#C6956A" stroke-width="5.63793"/>
<line x1="100.905" y1="192.173" x2="100.905" y2="221.302" stroke="#C6956A" stroke-width="5.63793"/>
<line x1="130.034" y1="192.173" x2="130.034" y2="220.363" stroke="#C6956A" stroke-width="5.63793"/>
<line x1="90.569" y1="10.8193" x2="90.569" y2="51.2245" stroke="#C6956A" stroke-width="5.63793"/>
<line x1="101.845" y1="8" x2="101.845" y2="43.7069" stroke="#C6956A" stroke-width="5.63793"/>
<line x1="130.974" y1="8" x2="130.974" y2="43.7069" stroke="#C6956A" stroke-width="5.63793"/>
<line x1="142.25" y1="10.8193" x2="142.25" y2="51.2245" stroke="#C6956A" stroke-width="5.63793"/>
<line x1="158.224" y1="15.5176" x2="158.224" y2="89.7503" stroke="#C49166" stroke-width="5.63793"/>
<line x1="158.224" y1="139.552" x2="158.224" y2="213.785" stroke="#C49166" stroke-width="5.63793"/>
<line x1="169.5" y1="22.0947" x2="169.5" y2="89.7499" stroke="#C49166" stroke-width="5.63793"/>
<line x1="169.5" y1="139.552" x2="169.5" y2="207.207" stroke="#C49166" stroke-width="5.63793"/>
<line x1="179.836" y1="30.5518" x2="179.836" y2="89.75" stroke="#C49166" stroke-width="5.63793"/>
<line x1="219.302" y1="97.267" x2="149.767" y2="97.267" stroke="#E7B987" stroke-width="3.75862"/>
<line x1="79.293" y1="97.267" x2="9.75848" y2="97.267" stroke="#E7B987" stroke-width="3.75862"/>
<line x1="219.302" y1="132.035" x2="149.767" y2="132.035" stroke="#E7B987" stroke-width="3.75862"/>
<line x1="84.9312" y1="132.035" x2="9.75874" y2="132.035" stroke="#E7B987" stroke-width="3.75862"/>
<line x1="179.836" y1="139.552" x2="179.836" y2="200.629" stroke="#C49166" stroke-width="5.63793"/>
<line x1="190.172" y1="39.0088" x2="190.172" y2="89.7502" stroke="#C49166" stroke-width="5.63793"/>
<line x1="189.233" y1="138.612" x2="189.233" y2="191.233" stroke="#C49166" stroke-width="5.63793"/>
<line x1="199.569" y1="48.4053" x2="199.569" y2="89.7501" stroke="#C49166" stroke-width="5.63793"/>
<line x1="199.569" y1="139.552" x2="199.569" y2="179.957" stroke="#C49166" stroke-width="5.63793"/>
<line x1="209.905" y1="65.3193" x2="209.905" y2="89.7504" stroke="#C49166" stroke-width="5.63793"/>
<line x1="209.905" y1="139.552" x2="209.905" y2="164.922" stroke="#C49166" stroke-width="5.63793"/>
<mask id="path-71-outside-1_53_759" maskUnits="userSpaceOnUse" x="-0.241699" y="-0.589844" width="230" height="230" fill="black">
<rect fill="white" x="-0.241699" y="-0.589844" width="230" height="230"/>
<path d="M220.241 114.652C220.241 172.775 173.123 219.893 115 219.893C56.8765 219.893 9.7583 172.775 9.7583 114.652C9.7583 56.5283 56.8765 9.41016 115 9.41016C173.123 9.41016 220.241 56.5283 220.241 114.652Z"/>
</mask>
<path d="M210.845 114.652C210.845 167.585 167.933 210.496 115 210.496V229.289C178.312 229.289 229.638 177.964 229.638 114.652H210.845ZM115 210.496C62.066 210.496 19.1549 167.585 19.1549 114.652H0.361749C0.361749 177.964 51.6869 229.289 115 229.289V210.496ZM19.1549 114.652C19.1549 61.7179 62.066 18.8067 115 18.8067V0.0136042C51.6869 0.0136042 0.361749 51.3388 0.361749 114.652H19.1549ZM115 18.8067C167.933 18.8067 210.845 61.7179 210.845 114.652H229.638C229.638 51.3388 178.312 0.0136042 115 0.0136042V18.8067Z" fill="#432F28" mask="url(#path-71-outside-1_53_759)"/>
</svg>
