<svg width="624" height="624" viewBox="0 0 624 624" fill="none" xmlns="http://www.w3.org/2000/svg">
<path d="M181.711 429.18C180.648 432.367 178.944 435.355 176.598 438.145C174.296 440.889 171.396 443.125 167.898 444.852C164.445 446.578 160.572 447.441 156.277 447.441C149.814 447.441 144.214 445.98 139.477 443.059C134.784 440.092 131.198 435.953 128.719 430.641C126.24 425.284 125 419.13 125 412.18C125 404.299 126.262 397.46 128.785 391.66C131.309 385.861 134.872 381.411 139.477 378.312C144.125 375.169 149.548 373.598 155.746 373.598C163.892 373.598 170.156 376.077 174.539 381.035C178.966 385.949 181 395.951 181 406H138.48C138.171 408.346 138.215 408.727 138.215 412.18C138.215 418.156 139.189 423.38 141.137 427.852C143.129 432.323 145.719 435.754 148.906 438.145C152.094 440.535 155.458 441.73 159 441.73C168.12 441.73 174.783 437.193 178.988 428.117L181.711 429.18ZM168.098 400.891C168.275 396.375 167.898 392.236 166.969 388.473C166.039 384.71 164.578 381.721 162.586 379.508C160.594 377.294 158.137 376.188 155.215 376.188C152.426 376.188 149.858 377.095 147.512 378.91C145.165 380.681 143.173 383.426 141.535 387.145C139.941 390.819 138.923 395.401 138.48 400.891H168.098Z" fill="#FFEEBB"/>
<path d="M212.855 389.867C215.113 384.112 218.257 379.973 222.285 377.449C226.358 374.882 230.918 373.598 235.965 373.598C242.296 373.598 247.099 375.302 250.375 378.711C252.102 380.57 253.319 382.872 254.027 385.617C254.78 388.318 255.156 391.97 255.156 396.574V432.898C255.156 435.422 255.488 437.392 256.152 438.809C256.861 440.225 257.945 441.221 259.406 441.797C260.911 442.372 262.948 442.66 265.516 442.66V445.516C257.016 445.161 251.57 444.984 249.18 444.984C246.612 444.984 241.521 445.161 233.906 445.516V442.66C236.164 442.66 237.935 442.372 239.219 441.797C240.503 441.221 241.432 440.225 242.008 438.809C242.628 437.392 242.938 435.422 242.938 432.898V393.586C242.938 390.31 242.672 387.565 242.141 385.352C241.609 383.138 240.525 381.345 238.887 379.973C237.293 378.6 234.969 377.914 231.914 377.914C228.24 377.914 224.941 378.977 222.02 381.102C219.142 383.182 216.884 386.104 215.246 389.867C213.652 393.586 212.855 397.814 212.855 402.551V432.898C212.855 435.422 213.143 437.392 213.719 438.809C214.339 440.225 215.268 441.221 216.508 441.797C217.792 442.372 219.562 442.66 221.82 442.66V445.516C214.206 445.161 209.137 444.984 206.613 444.984C204.046 444.984 198.6 445.161 190.277 445.516V442.66C192.845 442.66 194.859 442.372 196.32 441.797C197.826 441.221 198.91 440.225 199.574 438.809C200.283 437.392 200.637 435.422 200.637 432.898V355.336C200.637 351.13 199.862 348.098 198.312 346.238C196.807 344.335 194.129 343.383 190.277 343.383V340.527C193.155 340.793 195.966 340.926 198.711 340.926C204.555 340.926 209.27 340.284 212.855 339V389.867Z" fill="#FFEEBB"/>
<path d="M402.473 390C402.473 384.732 401.366 381.146 399.152 379.242C396.983 377.294 393.884 376.32 389.855 376.32C383.436 376.32 378.943 377.936 376.375 381.168C378.19 381.611 379.695 382.585 380.891 384.09C382.13 385.551 382.75 387.344 382.75 389.469C382.75 391.771 382.02 393.586 380.559 394.914C379.142 396.198 377.216 396.84 374.781 396.84C372.479 396.84 370.664 396.065 369.336 394.516C368.052 392.966 367.41 390.93 367.41 388.406C367.41 384.865 369.535 381.633 373.785 378.711C375.999 377.25 378.721 376.033 381.953 375.059C385.229 374.085 388.859 373.598 392.844 373.598C396.562 373.598 399.839 374.062 402.672 374.992C405.505 375.878 407.719 377.117 409.312 378.711C411.393 380.836 412.81 383.315 413.562 386.148C414.359 388.938 414.758 392.811 414.758 397.77V435.555C414.758 437.812 415.068 439.451 415.688 440.469C416.352 441.487 417.436 441.996 418.941 441.996C420.048 441.996 421.066 441.753 421.996 441.266C422.926 440.779 423.944 440.07 425.051 439.141L426.578 441.465C424.984 442.66 423.656 443.59 422.594 444.254C421.531 444.918 420.314 445.449 418.941 445.848C417.569 446.246 415.975 446.445 414.16 446.445C409.777 446.445 406.723 445.361 404.996 443.191C403.314 440.978 402.473 438.034 402.473 434.359C399.816 438.742 396.629 441.863 392.91 443.723C389.191 445.538 385.406 446.445 381.555 446.445C378.411 446.445 375.534 445.914 372.922 444.852C370.31 443.745 368.207 442.062 366.613 439.805C365.064 437.503 364.289 434.647 364.289 431.238C364.289 427.785 365.13 424.841 366.812 422.406C368.495 419.971 370.863 417.846 373.918 416.031C376.973 414.172 381.068 412.158 386.203 409.988C387.089 409.634 389.258 408.749 392.711 407.332C396.164 405.915 398.643 404.499 400.148 403.082C401.698 401.665 402.473 400.116 402.473 398.434V390ZM402.473 404.012C401.809 405.03 400.702 405.982 399.152 406.867C397.603 407.753 394.371 409.391 389.457 411.781C386.845 413.021 384.632 414.305 382.816 415.633C381.001 416.917 379.452 418.665 378.168 420.879C376.884 423.092 376.242 425.815 376.242 429.047C376.242 432.987 377.238 435.975 379.23 438.012C381.223 440.004 383.857 441 387.133 441C393.154 441 398.267 437.569 402.473 430.707V404.012Z" fill="#FFEEBB"/>
<path d="M471.336 375.457C476.117 375.723 479.924 375.855 482.758 375.855C486.786 375.855 498.122 376.121 501 375.855V378.578C499.185 378.799 492.917 379.751 491.5 381.168C490.083 382.585 489.509 386.148 488.27 389.469L466.5 447.441L461.973 457.402C460.246 461.874 456.638 466.456 454.469 468.359C452.5 471.016 446.633 474.016 442.117 474.016C437.602 474.016 434.227 471.477 432.5 470.016C430.773 468.599 430.5 465.583 430.5 463.016C430.5 460.846 432.5 457.734 432.5 457.734C433.784 456.451 436.605 455.742 438.863 455.742C440.855 455.742 442.493 456.296 443.777 457.402C445.105 458.509 445.77 460.081 445.77 462.117C445.77 464.818 444.552 466.854 442.117 468.227C442.294 468.315 442.56 468.359 442.914 468.359C447.917 468.359 451.768 464.818 454.469 457.734L459.316 445.316L434.613 385.949C433.064 382.806 431.514 380.747 429.965 379.773C428.46 378.799 426.932 378.312 425.383 378.312V375.457C429.633 376.033 434.082 376.32 438.73 376.32C442.626 376.32 448.514 376.033 456.395 375.457V378.312C454.181 378.312 452.454 378.401 451.215 378.578C449.975 378.711 448.935 379.132 448.094 379.84C447.297 380.504 446.898 381.566 446.898 383.027C446.898 384.665 447.474 386.901 448.625 389.734L465.027 430.375L480.035 390.996C481.009 388.34 481.496 386.259 481.496 384.754C481.496 382.629 480.677 381.057 479.039 380.039C477.445 379.021 474.878 378.401 471.336 378.18V375.457Z" fill="#FFEEBB"/>
<path d="M317.295 428.482C312.326 423.883 315.526 413.977 318.356 411.855H317.295L315.173 412.916C313.05 414.331 312.413 415.746 311.989 417.869C311.423 420.699 310.574 425.651 313.404 429.543C316.011 433.128 317.719 434.491 322.248 435.557C328.262 436.972 334.63 433.081 337.46 430.604C340.29 428.128 341.93 418.93 339.229 413.977C337.56 410.918 323.663 392.751 310.928 402.657C299.236 411.75 300.863 421.406 301.376 426.359C302.437 436.618 310.574 441.217 318.356 444.401C325.432 447.295 335.337 445.108 342.766 439.095C348.71 434.283 352.318 423.883 350.549 415.746C348.549 406.548 342.766 398.765 333.922 393.459C327.622 389.679 315.173 383.553 310.573 378.247C308.451 374.002 304.984 365.582 306.682 358.79C308.805 350.3 318.271 343.388 324.724 343.578C336.752 343.932 339.936 349.592 343.474 354.898C344.889 362.328 344.84 371.013 335.691 375.771C326.847 380.37 318.356 373.648 316.234 369.757C313.994 365.651 315.88 357.021 318.71 354.898C321.54 352.776 328.262 350.3 332.153 354.898C336.045 359.497 336.752 361.974 334.63 370.818C336.163 369.521 339.582 368.695 339.582 360.912C339.582 355.252 333.804 350.771 330.384 349.238C328.969 348.604 316.999 347.732 313.05 355.96C308.805 364.804 313.05 372.94 316.234 376.478C320.479 381.785 340.714 387.303 346.658 374.002C354.087 357.375 345.243 347.116 340.997 343.578C333.158 337.046 318.356 337.918 310.573 343.578C302.791 349.238 300.314 358.436 302.083 370.818C303.549 381.077 315.88 390.275 323.309 393.459C333.332 398.176 347.365 406.194 344.889 425.651C343.493 436.618 327.384 442.176 319.064 439.095C309.512 435.557 304.913 427.42 306.328 418.93C307.154 413.977 314.465 402.214 323.309 404.426C327.908 405.575 337.106 413.27 336.398 423.883C336.175 427.231 327.234 437.68 317.295 428.482Z" fill="#ECC38D"/>
<path d="M317.295 428.482C312.326 423.883 315.526 413.977 318.356 411.855H317.295L315.173 412.916C313.05 414.331 312.413 415.746 311.989 417.869C311.423 420.699 310.574 425.651 313.404 429.543C316.011 433.128 317.719 434.491 322.248 435.557C328.262 436.972 334.63 433.081 337.46 430.604C340.29 428.128 341.93 418.93 339.229 413.977C337.56 410.918 323.663 392.751 310.928 402.657C299.236 411.75 300.863 421.406 301.376 426.359C302.437 436.618 310.574 441.217 318.356 444.401C325.432 447.295 335.337 445.108 342.766 439.095C348.71 434.283 352.318 423.883 350.549 415.746C348.549 406.548 342.766 398.765 333.922 393.459C327.622 389.679 315.173 383.553 310.573 378.247C308.451 374.002 304.984 365.582 306.682 358.79C308.805 350.3 318.271 343.388 324.724 343.578C336.752 343.932 339.936 349.592 343.474 354.898C344.889 362.328 344.84 371.013 335.691 375.771C326.847 380.37 318.356 373.648 316.234 369.757C313.994 365.651 315.88 357.021 318.71 354.898C321.54 352.776 328.262 350.3 332.153 354.898C336.045 359.497 336.752 361.974 334.63 370.818C336.163 369.521 339.582 368.695 339.582 360.912C339.582 355.252 333.804 350.771 330.384 349.238C328.969 348.604 316.999 347.732 313.05 355.96C308.805 364.804 313.05 372.94 316.234 376.478C320.479 381.785 340.714 387.303 346.658 374.002C354.087 357.375 345.243 347.116 340.997 343.578C333.158 337.046 318.356 337.918 310.573 343.578C302.791 349.238 300.314 358.436 302.083 370.818C303.549 381.077 315.88 390.275 323.309 393.459C333.332 398.176 347.365 406.194 344.889 425.651C343.493 436.618 327.384 442.176 319.064 439.095C309.512 435.557 304.913 427.42 306.328 418.93C307.154 413.977 314.465 402.214 323.309 404.426C327.908 405.575 337.106 413.27 336.398 423.883C336.175 427.231 327.234 437.68 317.295 428.482Z" fill="#D0906C" fill-opacity="0.2"/>
<circle cx="325.078" cy="420.344" r="6.014" fill="#FFEEBB"/>
<path d="M332.153 363.387C332.153 366.904 329.656 369.401 326.139 369.401C322.623 369.401 320.125 366.904 320.125 363.387C320.125 359.87 322.623 357.373 326.139 357.373C329.656 357.373 332.153 359.87 332.153 363.387Z" fill="#FFEEBB"/>
<path d="M80 411.5L66.5 397L52 411.5L66.5 426.5L80 411.5Z" stroke="#E7B987" stroke-width="4"/>
<circle cx="66" cy="411" r="2.5" fill="#FFEEBB" stroke="#FFEEBB"/>
<path d="M113 411.5L99.5 397L85 411.5L99.5 426.5L113 411.5Z" stroke="#E7B987" stroke-width="4"/>
<circle cx="99" cy="411" r="2.5" fill="#FFEEBB" stroke="#FFEEBB"/>
<path d="M47 411.5L33.5 397L19 411.5L33.5 426.5L47 411.5Z" stroke="#E7B987" stroke-width="4"/>
<circle cx="33" cy="411" r="2.5" fill="#FFEEBB" stroke="#FFEEBB"/>
<path d="M559 411.5L545.5 397L531 411.5L545.5 426.5L559 411.5Z" stroke="#E7B987" stroke-width="4"/>
<circle cx="545" cy="411" r="2.5" fill="#FFEEBB" stroke="#FFEEBB"/>
<path d="M592 411.5L578.5 397L564 411.5L578.5 426.5L592 411.5Z" stroke="#E7B987" stroke-width="4"/>
<circle cx="578" cy="411" r="2.5" fill="#FFEEBB" stroke="#FFEEBB"/>
<path d="M526 411.5L512.5 397L498 411.5L512.5 426.5L526 411.5Z" stroke="#E7B987" stroke-width="4"/>
<circle cx="512" cy="411" r="2.5" fill="#FFEEBB" stroke="#FFEEBB"/>
<circle cx="281" cy="401" r="8.5" fill="#FFEEBB" stroke="#FFEEBB"/>
<rect x="203" y="109" width="218" height="213.302" rx="95" fill="#432F28"/>
<path d="M310.011 122.963L313.026 119.948C313.94 120.479 314.589 121.013 315.139 121.634C316.024 122.633 316.82 124.046 317.855 126.529C318.459 127.978 318.088 129.246 316.788 130.589C315.552 131.865 313.738 132.858 312.235 133.372C311.397 133.251 311.007 133.165 310.736 133.049C310.626 133.002 310.57 132.962 310.524 132.919C310.47 132.87 310.365 132.758 310.22 132.504C309.698 131.59 309.241 130.904 308.887 130.377C308.506 129.809 308.346 129.566 308.238 129.351C308.235 129.344 308.23 129.336 308.226 129.328C308.164 129.213 308.044 128.991 308.194 127.86L308.997 124.655L310.011 122.963Z" stroke="#E6B986" stroke-width="5.63793"/>
<path d="M309.944 301.625L312.483 299.414C315.399 301.185 316.698 302.964 316.698 305.188C316.698 307.748 315.262 309.594 312.476 310.956C312.182 310.934 311.925 310.927 311.704 310.925C311.657 310.856 311.604 310.776 311.543 310.683C310.298 308.773 309.556 308.06 308.93 307.475C308.699 307.259 308.623 307.183 308.526 307.057C308.461 306.972 308.369 306.841 308.242 306.627L308.242 304.369L309.944 301.625ZM311.114 310.924C311.114 310.924 311.115 310.924 311.117 310.924L311.114 310.924Z" stroke="#E6B986" stroke-width="5.63793"/>
<circle cx="250.922" cy="244.31" r="3.75862" fill="#FFEEBB"/>
<circle cx="261.259" cy="244.31" r="3.75862" fill="#FFEEBB"/>
<circle cx="261.259" cy="146.586" r="3.75862" fill="#FFEEBB"/>
<circle cx="250.922" cy="146.586" r="3.75862" fill="#FFEEBB"/>
<circle cx="250.922" cy="158.802" r="3.75862" fill="#FFEEBB"/>
<circle cx="250.922" cy="171.957" r="3.75862" fill="#FFEEBB"/>
<circle cx="250.922" cy="258.405" r="3.75862" fill="#FFEEBB"/>
<circle cx="261.259" cy="258.405" r="3.75862" fill="#FFEEBB"/>
<circle cx="261.259" cy="158.802" r="3.75862" fill="#FFEEBB"/>
<circle cx="250.922" cy="271.56" r="3.75862" fill="#FFEEBB"/>
<circle cx="261.259" cy="271.56" r="3.75862" fill="#D9D9D9"/>
<circle cx="261.259" cy="271.56" r="3.75862" fill="#FFEEBB"/>
<circle cx="261.259" cy="171.957" r="3.75862" fill="#FFEEBB"/>
<circle cx="261.259" cy="284.716" r="3.75862" fill="#FFEEBB"/>
<circle cx="261.259" cy="185.112" r="3.75862" fill="#FFEEBB"/>
<path d="M257.5 215.651L244.815 202.026L231.19 215.651L244.815 229.746L257.5 215.651Z" stroke="#E7B987" stroke-width="3.75862"/>
<circle cx="244.345" cy="215.181" r="2.34914" fill="#FFEEBB" stroke="#FFEEBB" stroke-width="0.939655"/>
<path d="M286.629 215.651L273.944 202.026L260.319 215.651L273.944 229.746L286.629 215.651Z" stroke="#E7B987" stroke-width="3.75862"/>
<circle cx="273.474" cy="215.181" r="2.34914" fill="#FFEEBB" stroke="#FFEEBB" stroke-width="0.939655"/>
<path d="M229.31 215.651L216.625 202.026L203 215.651L216.625 229.746L229.31 215.651Z" stroke="#E7B987" stroke-width="3.75862"/>
<circle cx="216.155" cy="215.181" r="2.34914" fill="#FFEEBB" stroke="#FFEEBB" stroke-width="0.939655"/>
<path d="M393.75 215.651L381.065 202.026L367.44 215.651L381.065 229.746L393.75 215.651Z" stroke="#E7B987" stroke-width="3.75862"/>
<circle cx="380.595" cy="215.181" r="2.34914" fill="#FFEEBB" stroke="#FFEEBB" stroke-width="0.939655"/>
<path d="M421 215.651L408.315 202.026L394.69 215.651L408.315 229.746L421 215.651Z" stroke="#E7B987" stroke-width="3.75862"/>
<circle cx="407.845" cy="215.181" r="2.34914" fill="#FFEEBB" stroke="#FFEEBB" stroke-width="0.939655"/>
<path d="M365.56 215.651L352.875 202.026L339.25 215.651L352.875 229.746L365.56 215.651Z" stroke="#E7B987" stroke-width="3.75862"/>
<circle cx="352.405" cy="215.181" r="2.34914" fill="#FFEEBB" stroke="#FFEEBB" stroke-width="0.939655"/>
<path d="M303.32 265.916C296.797 259.88 300.998 246.878 304.713 244.092H303.32L300.534 245.485C297.747 247.342 296.912 249.2 296.354 251.986C295.612 255.701 294.497 262.201 298.212 267.309C301.634 272.014 303.875 273.804 309.82 275.203C317.714 277.06 326.072 271.952 329.787 268.702C333.502 265.452 335.654 253.379 332.109 246.878C329.919 242.863 311.678 219.018 294.962 232.019C279.616 243.955 281.752 256.629 282.424 263.13C283.817 276.596 294.497 282.632 304.713 286.811C313.999 290.61 327.001 287.74 336.752 279.846C344.553 273.531 349.289 259.88 346.967 249.2C344.343 237.127 336.752 226.912 325.143 219.947C316.874 214.985 300.534 206.945 294.497 199.98C291.711 194.408 287.161 183.357 289.389 174.441C292.175 163.297 304.601 154.226 313.071 154.475C328.858 154.939 333.037 162.368 337.681 169.334C339.538 179.085 339.474 190.485 327.465 196.73C315.857 202.766 304.713 193.944 301.927 188.836C298.987 183.447 301.462 172.12 305.177 169.334C308.892 166.548 317.714 163.297 322.822 169.334C327.929 175.37 328.858 178.62 326.072 190.229C328.084 188.526 332.573 187.443 332.573 177.227C332.573 169.798 324.989 163.916 320.5 161.904C318.643 161.071 302.931 159.927 297.747 170.726C292.175 182.335 297.747 193.015 301.927 197.658C307.499 204.623 334.059 211.867 341.86 194.408C351.611 172.584 340.002 159.118 334.43 154.475C324.141 145.901 304.712 147.045 294.497 154.475C284.281 161.904 281.031 173.977 283.353 190.229C285.277 203.695 301.462 215.767 311.213 219.947C324.369 226.138 342.788 236.663 339.538 262.201C337.706 276.596 316.562 283.891 305.641 279.846C293.104 275.203 287.068 264.523 288.925 253.379C290.008 246.878 299.605 231.439 311.213 234.341C317.25 235.85 329.323 245.949 328.394 259.88C328.101 264.275 316.365 277.989 303.32 265.916Z" fill="#ECC38D"/>
<path d="M303.32 265.916C296.797 259.88 300.998 246.878 304.713 244.092H303.32L300.534 245.485C297.747 247.342 296.912 249.2 296.354 251.986C295.612 255.701 294.497 262.201 298.212 267.309C301.634 272.014 303.875 273.804 309.82 275.203C317.714 277.06 326.072 271.952 329.787 268.702C333.502 265.452 335.654 253.379 332.109 246.878C329.919 242.863 311.678 219.018 294.962 232.019C279.616 243.955 281.752 256.629 282.424 263.13C283.817 276.596 294.497 282.632 304.713 286.811C313.999 290.61 327.001 287.74 336.752 279.846C344.553 273.531 349.289 259.88 346.967 249.2C344.343 237.127 336.752 226.912 325.143 219.947C316.874 214.985 300.534 206.945 294.497 199.98C291.711 194.408 287.161 183.357 289.389 174.441C292.175 163.297 304.601 154.226 313.071 154.475C328.858 154.939 333.037 162.368 337.681 169.334C339.538 179.085 339.474 190.485 327.465 196.73C315.857 202.766 304.713 193.944 301.927 188.836C298.987 183.447 301.462 172.12 305.177 169.334C308.892 166.548 317.714 163.297 322.822 169.334C327.929 175.37 328.858 178.62 326.072 190.229C328.084 188.526 332.573 187.443 332.573 177.227C332.573 169.798 324.989 163.916 320.5 161.904C318.643 161.071 302.931 159.927 297.747 170.726C292.175 182.335 297.747 193.015 301.927 197.658C307.499 204.623 334.059 211.867 341.86 194.408C351.611 172.584 340.002 159.118 334.43 154.475C324.141 145.901 304.712 147.045 294.497 154.475C284.281 161.904 281.031 173.977 283.353 190.229C285.277 203.695 301.462 215.767 311.213 219.947C324.369 226.138 342.788 236.663 339.538 262.201C337.706 276.596 316.562 283.891 305.641 279.846C293.104 275.203 287.068 264.523 288.925 253.379C290.008 246.878 299.605 231.439 311.213 234.341C317.25 235.85 329.323 245.949 328.394 259.88C328.101 264.275 316.365 277.989 303.32 265.916Z" fill="#D0906C" fill-opacity="0.2"/>
<circle cx="313.535" cy="255.235" r="7.89375" fill="#FFEEBB"/>
<path d="M322.822 180.476C322.822 185.092 319.544 188.37 314.928 188.37C310.312 188.37 307.034 185.092 307.034 180.476C307.034 175.86 310.312 172.582 314.928 172.582C319.544 172.582 322.822 175.86 322.822 180.476Z" fill="#FFEEBB"/>
<line x1="218.974" y1="163.5" x2="218.974" y2="190.75" stroke="#C6956A" stroke-width="5.63793"/>
<line x1="249.983" y1="128.732" x2="249.983" y2="139.069" stroke="#C6956A" stroke-width="5.63793"/>
<line x1="260.319" y1="123.095" x2="260.319" y2="139.069" stroke="#C6956A" stroke-width="5.63793"/>
<line x1="249.983" y1="181.354" x2="249.983" y2="190.75" stroke="#C6956A" stroke-width="5.63793"/>
<line x1="218.974" y1="240.552" x2="218.974" y2="267.802" stroke="#C6956A" stroke-width="5.63793"/>
<line x1="249.983" y1="280.957" x2="249.983" y2="302.569" stroke="#C6956A" stroke-width="5.63793"/>
<line x1="260.319" y1="293.173" x2="260.319" y2="310.087" stroke="#C6956A" stroke-width="5.63793"/>
<line x1="229.31" y1="148.466" x2="229.31" y2="190.75" stroke="#C6956A" stroke-width="5.63793"/>
<line x1="228.371" y1="240.552" x2="228.371" y2="282.836" stroke="#C6956A" stroke-width="5.63793"/>
<line x1="239.647" y1="136.25" x2="239.647" y2="190.75" stroke="#C6956A" stroke-width="5.63793"/>
<line x1="239.647" y1="240.552" x2="239.647" y2="295.991" stroke="#C6956A" stroke-width="5.63793"/>
<line x1="271.595" y1="116.518" x2="271.595" y2="190.75" stroke="#C6956A" stroke-width="5.63793"/>
<line x1="271.595" y1="240.552" x2="271.595" y2="313.845" stroke="#C6956A" stroke-width="5.63793"/>
<line x1="287.569" y1="285.655" x2="287.569" y2="318.543" stroke="#C6956A" stroke-width="5.63793"/>
<line x1="339.25" y1="285.655" x2="339.25" y2="318.543" stroke="#C6956A" stroke-width="5.63793"/>
<line x1="297.905" y1="293.173" x2="297.905" y2="322.302" stroke="#C6956A" stroke-width="5.63793"/>
<line x1="327.034" y1="293.173" x2="327.034" y2="321.363" stroke="#C6956A" stroke-width="5.63793"/>
<line x1="287.569" y1="111.819" x2="287.569" y2="152.225" stroke="#C6956A" stroke-width="5.63793"/>
<line x1="298.845" y1="109" x2="298.845" y2="144.707" stroke="#C6956A" stroke-width="5.63793"/>
<line x1="327.974" y1="109" x2="327.974" y2="144.707" stroke="#C6956A" stroke-width="5.63793"/>
<line x1="339.25" y1="111.819" x2="339.25" y2="152.225" stroke="#C6956A" stroke-width="5.63793"/>
<line x1="355.224" y1="116.518" x2="355.224" y2="190.75" stroke="#C49166" stroke-width="5.63793"/>
<line x1="355.224" y1="240.552" x2="355.224" y2="314.785" stroke="#C49166" stroke-width="5.63793"/>
<line x1="366.5" y1="123.095" x2="366.5" y2="190.75" stroke="#C49166" stroke-width="5.63793"/>
<line x1="366.5" y1="240.552" x2="366.5" y2="308.207" stroke="#C49166" stroke-width="5.63793"/>
<line x1="376.836" y1="131.552" x2="376.836" y2="190.75" stroke="#C49166" stroke-width="5.63793"/>
<line x1="416.302" y1="198.267" x2="346.767" y2="198.267" stroke="#E7B987" stroke-width="3.75862"/>
<line x1="276.293" y1="198.267" x2="206.758" y2="198.267" stroke="#E7B987" stroke-width="3.75862"/>
<line x1="416.302" y1="233.035" x2="346.767" y2="233.035" stroke="#E7B987" stroke-width="3.75862"/>
<line x1="281.931" y1="233.035" x2="206.759" y2="233.035" stroke="#E7B987" stroke-width="3.75862"/>
<line x1="376.836" y1="240.552" x2="376.836" y2="301.629" stroke="#C49166" stroke-width="5.63793"/>
<line x1="387.172" y1="140.009" x2="387.172" y2="190.75" stroke="#C49166" stroke-width="5.63793"/>
<line x1="386.233" y1="239.612" x2="386.233" y2="292.233" stroke="#C49166" stroke-width="5.63793"/>
<line x1="396.569" y1="149.405" x2="396.569" y2="190.75" stroke="#C49166" stroke-width="5.63793"/>
<line x1="396.569" y1="240.552" x2="396.569" y2="280.957" stroke="#C49166" stroke-width="5.63793"/>
<line x1="406.905" y1="166.319" x2="406.905" y2="190.75" stroke="#C49166" stroke-width="5.63793"/>
<line x1="406.905" y1="240.552" x2="406.905" y2="265.922" stroke="#C49166" stroke-width="5.63793"/>
<mask id="path-88-outside-1_53_652" maskUnits="userSpaceOnUse" x="196.758" y="100.41" width="230" height="230" fill="black">
<rect fill="white" x="196.758" y="100.41" width="230" height="230"/>
<path d="M417.241 215.652C417.241 273.775 370.123 320.893 312 320.893C253.876 320.893 206.758 273.775 206.758 215.652C206.758 157.528 253.876 110.41 312 110.41C370.123 110.41 417.241 157.528 417.241 215.652Z"/>
</mask>
<path d="M407.845 215.652C407.845 268.585 364.933 311.496 312 311.496V330.289C375.312 330.289 426.638 278.964 426.638 215.652H407.845ZM312 311.496C259.066 311.496 216.155 268.585 216.155 215.652H197.362C197.362 278.964 248.687 330.289 312 330.289V311.496ZM216.155 215.652C216.155 162.718 259.066 119.807 312 119.807V101.014C248.687 101.014 197.362 152.339 197.362 215.652H216.155ZM312 119.807C364.933 119.807 407.845 162.718 407.845 215.652H426.638C426.638 152.339 375.312 101.014 312 101.014V119.807Z" fill="#432F28" mask="url(#path-88-outside-1_53_652)"/>
</svg>
